<svg xmlns="http://www.w3.org/2000/svg" xmlns:xlink="http://www.w3.org/1999/xlink" width="500" zoomAndPan="magnify" viewBox="0 0 375 374.999991" height="500" preserveAspectRatio="xMidYMid meet" version="1.0"><path fill="#caddff" d="M 339.367188 148.519531 C 325.226562 76.683594 253.816406 33.265625 193.882812 27.730469 C 144.230469 23.140625 84.046875 35.652344 56.234375 81.699219 C 39.191406 109.914062 60.214844 122.335938 48.425781 184.777344 C 38.222656 238.824219 19.621094 258.296875 30.941406 285.84375 C 40.195312 308.363281 61.257812 318.230469 75.085938 325.039062 C 129.578125 351.875 229.953125 349.742188 289.550781 300.792969 C 303.5 289.335938 355.367188 229.78125 339.367188 148.519531 " fill-opacity="1" fill-rule="nonzero"/><path fill="#ffffff" d="M 151.292969 95.980469 C 159.425781 81.933594 177.40625 77.132812 191.457031 85.265625 C 205.507812 93.398438 210.304688 111.382812 202.171875 125.433594 C 194.039062 139.480469 176.058594 144.28125 162.007812 136.148438 C 147.957031 128.015625 143.160156 110.035156 151.292969 95.980469 Z M 131.902344 94.527344 C 130.988281 97.054688 130.289062 99.621094 129.820312 102.207031 L 117.667969 104.933594 L 117.65625 116.355469 L 129.820312 119.113281 C 130.289062 121.722656 130.976562 124.292969 131.871094 126.789062 L 122.695312 135.238281 L 128.394531 145.136719 L 140.289062 141.445312 C 141.984375 143.457031 143.867188 145.335938 145.921875 147.066406 L 142.199219 158.972656 L 152.082031 164.691406 L 160.554688 155.535156 C 163.078125 156.453125 165.644531 157.148438 168.230469 157.617188 L 170.957031 169.773438 L 182.378906 169.785156 L 185.136719 157.617188 C 187.746094 157.148438 190.316406 156.464844 192.8125 155.570312 L 201.265625 164.746094 L 211.160156 159.046875 L 207.46875 147.148438 C 209.480469 145.457031 211.359375 143.570312 213.09375 141.519531 L 224.996094 145.238281 L 230.714844 135.355469 L 221.5625 126.886719 C 222.476562 124.359375 223.175781 121.792969 223.644531 119.207031 L 235.796875 116.480469 L 235.808594 105.058594 L 223.644531 102.304688 C 223.175781 99.691406 222.488281 97.125 221.59375 94.628906 L 230.769531 86.175781 L 225.070312 76.277344 L 213.171875 79.96875 C 211.480469 77.960938 209.59375 76.082031 207.542969 74.347656 L 211.265625 62.441406 L 201.378906 56.722656 L 192.910156 65.878906 C 190.386719 64.960938 187.820312 64.265625 185.234375 63.796875 L 182.503906 51.644531 L 171.085938 51.628906 L 168.328125 63.796875 C 165.71875 64.265625 163.148438 64.949219 160.652344 65.84375 L 152.199219 56.671875 L 142.304688 62.367188 L 145.992188 74.265625 C 143.984375 75.960938 142.105469 77.84375 140.371094 79.894531 L 128.46875 76.175781 L 122.746094 86.058594 L 131.902344 94.527344 " fill-opacity="1" fill-rule="nonzero"/><path fill="#99b9ff" d="M 234.839844 329.042969 L 171.160156 329.042969 L 138.296875 271.515625 L 138.296875 321.761719 C 138.296875 329.617188 144.027344 335.902344 150.972656 335.902344 L 234.839844 335.902344 C 236.191406 335.902344 237.40625 334.957031 237.40625 333.605469 L 237.40625 331.355469 C 237.40625 330 236.191406 329.042969 234.839844 329.042969 " fill-opacity="1" fill-rule="nonzero"/><path fill="#ffffff" d="M 147.636719 289.589844 L 147.636719 318.082031 C 147.636719 323.855469 152.214844 328.46875 157.992188 328.46875 L 212.820312 328.46875 L 212.820312 289.589844 L 147.636719 289.589844 " fill-opacity="1" fill-rule="nonzero"/><path fill="#000000" d="M 148.207031 290.160156 L 148.207031 318.082031 C 148.207031 323.585938 152.503906 327.898438 157.992188 327.898438 L 212.246094 327.898438 L 212.246094 290.160156 Z M 213.390625 329.042969 L 157.992188 329.042969 C 151.863281 329.042969 147.0625 324.226562 147.0625 318.082031 L 147.0625 289.019531 L 213.390625 289.019531 L 213.390625 329.042969 " fill-opacity="1" fill-rule="nonzero"/><path fill="#99b9ff" d="M 320.164062 292.21875 L 52.824219 292.800781 C 50.488281 292.800781 48.515625 291.0625 48.21875 288.738281 L 26.921875 122.316406 C 26.402344 118.265625 29.355469 114.441406 33.429688 114.441406 L 297.3125 114.683594 L 320.164062 292.21875 " fill-opacity="1" fill-rule="nonzero"/><path fill="#ffffff" d="M 325.644531 292.003906 L 63.644531 292.003906 C 61.308594 292.003906 59.335938 290.261719 59.039062 287.933594 L 37.875 123.003906 C 37.289062 118.421875 40.835938 114.367188 45.429688 114.367188 L 304.050781 114.367188 C 306.386719 114.367188 308.359375 116.109375 308.65625 118.4375 L 330.25 286.734375 C 330.609375 289.53125 328.445312 292.003906 325.644531 292.003906 " fill-opacity="1" fill-rule="nonzero"/><path fill="#000000" d="M 45.429688 114.933594 C 43.414062 114.933594 41.492188 115.808594 40.15625 117.324219 C 38.808594 118.859375 38.183594 120.902344 38.445312 122.929688 L 59.605469 287.859375 C 59.867188 289.898438 61.601562 291.433594 63.644531 291.433594 L 325.644531 291.433594 C 326.808594 291.433594 327.921875 290.929688 328.695312 290.054688 C 329.472656 289.164062 329.835938 287.984375 329.683594 286.808594 L 308.089844 118.511719 C 307.828125 116.472656 306.089844 114.933594 304.050781 114.933594 Z M 325.644531 292.578125 L 63.644531 292.578125 C 61.03125 292.578125 58.804688 290.609375 58.46875 288.003906 L 37.308594 123.078125 C 37.007812 120.722656 37.730469 118.347656 39.296875 116.570312 C 40.851562 114.804688 43.085938 113.792969 45.429688 113.792969 L 304.050781 113.792969 C 306.667969 113.792969 308.890625 115.757812 309.222656 118.363281 L 330.820312 286.664062 C 331.011719 288.164062 330.550781 289.675781 329.550781 290.808594 C 328.5625 291.933594 327.136719 292.578125 325.644531 292.578125 " fill-opacity="1" fill-rule="nonzero"/><path fill="#caddff" d="M 58.476562 98.585938 L 287.9375 98.585938 C 293 98.585938 297.609375 102.703125 298.230469 107.789062 L 317.585938 266.503906 C 318.214844 271.636719 314.59375 275.804688 309.5 275.804688 L 78.746094 275.804688 C 73.65625 275.804688 69.050781 271.636719 68.464844 266.503906 L 50.355469 107.789062 C 49.777344 102.703125 53.410156 98.585938 58.476562 98.585938 " fill-opacity="1" fill-rule="nonzero"/><path fill="#99b9ff" d="M 298.957031 113.40625 L 298.523438 107.703125 C 297.910156 102.667969 293.140625 98.65625 288.074219 98.65625 L 58.613281 98.65625 C 53.546875 98.65625 49.859375 102.667969 50.433594 107.703125 L 50.972656 114.726562 L 298.957031 113.40625 " fill-opacity="1" fill-rule="nonzero"/><path fill="#caddff" d="M 64.878906 107.941406 C 65.066406 109.578125 63.890625 110.90625 62.253906 110.90625 C 60.617188 110.90625 59.140625 109.578125 58.953125 107.941406 C 58.765625 106.304688 59.941406 104.980469 61.578125 104.980469 C 63.210938 104.980469 64.691406 106.304688 64.878906 107.941406 " fill-opacity="1" fill-rule="nonzero"/><path fill="#caddff" d="M 74.335938 107.742188 C 74.527344 109.378906 73.351562 110.707031 71.714844 110.707031 C 70.078125 110.707031 68.601562 109.378906 68.414062 107.742188 C 68.226562 106.105469 69.398438 104.777344 71.035156 104.777344 C 72.671875 104.777344 74.148438 106.105469 74.335938 107.742188 " fill-opacity="1" fill-rule="nonzero"/><path fill="#caddff" d="M 84.65625 108.136719 C 84.84375 109.773438 83.667969 111.101562 82.03125 111.101562 C 80.394531 111.101562 78.917969 109.773438 78.730469 108.136719 C 78.539062 106.5 79.714844 105.175781 81.351562 105.175781 C 82.988281 105.175781 84.464844 106.5 84.65625 108.136719 " fill-opacity="1" fill-rule="nonzero"/><path fill="#ffffff" d="M 102.769531 202.308594 L 124.679688 202.308594 L 120.609375 167.269531 L 119.789062 169.113281 Z M 138.652344 202.308594 L 149.058594 202.308594 L 150.375 213.5625 L 139.960938 213.5625 L 142.144531 232.277344 L 128.15625 232.277344 L 125.984375 213.5625 L 89.804688 213.5625 L 88.417969 205.019531 L 117.953125 148.34375 L 132.363281 148.34375 L 138.652344 202.308594 " fill-opacity="1" fill-rule="nonzero"/><path fill="#ffffff" d="M 196.414062 181.207031 C 195.480469 173.335938 193.722656 167.570312 191.148438 163.90625 C 188.570312 160.242188 184.945312 158.410156 180.273438 158.410156 C 175.71875 158.410156 172.574219 160.144531 170.839844 163.617188 C 169.101562 167.089844 168.613281 172.507812 169.363281 179.882812 L 171.601562 198.902344 C 172.523438 206.75 174.304688 212.597656 176.941406 216.445312 C 179.582031 220.296875 183.242188 222.222656 187.921875 222.222656 C 192.410156 222.222656 195.515625 220.441406 197.242188 216.882812 C 198.96875 213.320312 199.441406 207.75 198.660156 200.175781 Z M 212.238281 196.882812 C 213.675781 208.964844 212.503906 218.074219 208.726562 224.214844 C 204.949219 230.363281 198.453125 233.433594 189.242188 233.433594 C 180.1875 233.433594 173.015625 230.4375 167.730469 224.449219 C 162.441406 218.460938 159.054688 209.597656 157.566406 197.867188 L 155.863281 183.339844 C 154.453125 171.28125 155.640625 162.246094 159.433594 156.222656 C 163.222656 150.203125 169.726562 147.195312 178.953125 147.195312 C 188.097656 147.195312 195.265625 150.125 200.457031 155.992188 C 205.652344 161.859375 209.003906 170.648438 210.511719 182.359375 L 212.238281 196.882812 " fill-opacity="1" fill-rule="nonzero"/><path fill="#ffffff" d="M 236.632812 202.308594 L 258.539062 202.308594 L 254.320312 167.269531 L 253.511719 169.113281 Z M 272.511719 202.308594 L 282.917969 202.308594 L 284.28125 213.5625 L 273.871094 213.5625 L 276.132812 232.277344 L 262.144531 232.277344 L 259.890625 213.5625 L 223.714844 213.5625 L 222.292969 205.019531 L 251.585938 148.34375 L 265.996094 148.34375 L 272.511719 202.308594 " fill-opacity="1" fill-rule="nonzero"/><path fill="#5e17eb" d="M 106.386719 198.613281 L 126.71875 198.613281 L 122.964844 166.285156 Z M 127.359375 199.757812 L 105.453125 199.757812 C 105.253906 199.757812 105.066406 199.65625 104.964844 199.484375 C 104.859375 199.316406 104.851562 199.105469 104.945312 198.925781 L 121.964844 165.734375 L 122.769531 163.917969 C 122.875 163.683594 123.121094 163.546875 123.378906 163.585938 C 123.632812 163.625 123.832031 163.828125 123.859375 164.085938 L 127.929688 199.121094 C 127.945312 199.285156 127.894531 199.445312 127.789062 199.566406 C 127.679688 199.691406 127.523438 199.757812 127.359375 199.757812 Z M 131.347656 228.585938 L 144.183594 228.585938 L 142.074219 210.507812 C 142.058594 210.347656 142.109375 210.183594 142.21875 210.0625 C 142.324219 209.9375 142.480469 209.867188 142.644531 209.867188 L 152.414062 209.867188 L 151.230469 199.757812 L 141.332031 199.757812 C 141.042969 199.757812 140.800781 199.542969 140.765625 199.253906 L 134.535156 145.796875 L 120.984375 145.796875 L 91.695312 201.996094 L 92.972656 209.867188 L 128.667969 209.867188 C 128.957031 209.867188 129.203125 210.085938 129.234375 210.375 Z M 144.824219 229.730469 L 130.839844 229.730469 C 130.550781 229.730469 130.304688 229.511719 130.273438 229.222656 L 128.15625 211.011719 L 92.484375 211.011719 C 92.207031 211.011719 91.964844 210.808594 91.921875 210.53125 L 90.539062 201.988281 C 90.519531 201.867188 90.539062 201.742188 90.59375 201.632812 L 120.128906 144.960938 C 120.226562 144.769531 120.421875 144.652344 120.636719 144.652344 L 135.042969 144.652344 C 135.335938 144.652344 135.578125 144.867188 135.613281 145.160156 L 141.839844 198.613281 L 151.742188 198.613281 C 152.03125 198.613281 152.273438 198.832031 152.308594 199.121094 L 153.625 210.375 C 153.644531 210.535156 153.589844 210.699219 153.484375 210.820312 C 153.375 210.945312 153.21875 211.011719 153.054688 211.011719 L 143.289062 211.011719 L 145.394531 229.089844 C 145.410156 229.253906 145.363281 229.414062 145.253906 229.535156 C 145.144531 229.65625 144.988281 229.730469 144.824219 229.730469 " fill-opacity="1" fill-rule="nonzero"/><path fill="#5e17eb" d="M 182.957031 155.859375 C 178.597656 155.859375 175.679688 157.460938 174.03125 160.75 C 172.355469 164.109375 171.875 169.476562 172.613281 176.703125 L 174.851562 195.714844 C 175.757812 203.4375 177.523438 209.25 180.097656 213.003906 C 182.644531 216.722656 186.082031 218.53125 190.605469 218.53125 C 194.890625 218.53125 197.773438 216.886719 199.410156 213.511719 C 201.082031 210.066406 201.539062 204.546875 200.773438 197.113281 L 198.527344 178.15625 C 197.609375 170.417969 195.871094 164.679688 193.359375 161.113281 C 190.871094 157.578125 187.46875 155.859375 182.957031 155.859375 Z M 190.605469 219.675781 C 185.746094 219.675781 181.894531 217.648438 179.152344 213.652344 C 176.472656 209.742188 174.644531 203.753906 173.714844 195.851562 L 171.480469 176.828125 C 170.71875 169.375 171.234375 163.796875 173.007812 160.238281 C 174.84375 156.574219 178.1875 154.71875 182.957031 154.71875 C 187.800781 154.71875 191.617188 156.648438 194.296875 160.453125 C 196.917969 164.179688 198.722656 170.089844 199.660156 178.019531 L 201.910156 196.984375 C 202.699219 204.644531 202.207031 210.371094 200.4375 214.011719 C 198.617188 217.769531 195.308594 219.675781 190.605469 219.675781 Z M 181.632812 144.644531 C 172.664062 144.644531 166.257812 147.59375 162.601562 153.40625 C 158.894531 159.289062 157.722656 168.285156 159.113281 180.152344 L 160.816406 194.679688 C 162.28125 206.238281 165.65625 215.078125 170.839844 220.949219 C 175.988281 226.78125 183.082031 229.742188 191.925781 229.742188 C 200.878906 229.742188 207.269531 226.730469 210.921875 220.796875 C 214.613281 214.796875 215.769531 205.722656 214.355469 193.832031 L 212.625 179.308594 C 211.140625 167.773438 207.808594 159.007812 202.710938 153.253906 C 197.660156 147.542969 190.566406 144.644531 181.632812 144.644531 Z M 191.925781 230.886719 C 182.742188 230.886719 175.359375 227.796875 169.980469 221.703125 C 164.644531 215.660156 161.179688 206.613281 159.679688 194.820312 L 157.976562 180.285156 C 156.558594 168.152344 157.785156 158.90625 161.632812 152.796875 C 165.515625 146.628906 172.246094 143.503906 181.632812 143.503906 C 190.90625 143.503906 198.285156 146.527344 203.570312 152.492188 C 208.816406 158.421875 212.246094 167.398438 213.761719 179.167969 L 215.488281 193.695312 C 216.933594 205.851562 215.722656 215.171875 211.894531 221.394531 C 208.023438 227.691406 201.304688 230.886719 191.925781 230.886719 " fill-opacity="1" fill-rule="nonzero"/><path fill="#5e17eb" d="M 261.222656 199.757812 L 239.3125 199.757812 C 239.113281 199.757812 238.929688 199.65625 238.824219 199.488281 C 238.722656 199.316406 238.714844 199.105469 238.804688 198.929688 L 255.683594 165.734375 L 256.480469 163.921875 C 256.585938 163.683594 256.835938 163.546875 257.089844 163.585938 C 257.34375 163.625 257.542969 163.828125 257.574219 164.082031 L 260.191406 185.847656 C 260.230469 186.160156 260.007812 186.445312 259.691406 186.480469 C 259.375 186.523438 259.09375 186.296875 259.058594 185.984375 L 256.6875 166.285156 L 240.246094 198.617188 L 260.578125 198.617188 L 260.113281 194.761719 C 260.074219 194.449219 260.296875 194.164062 260.613281 194.128906 C 260.929688 194.085938 261.207031 194.3125 261.246094 194.625 L 261.789062 199.121094 C 261.808594 199.28125 261.757812 199.441406 261.648438 199.566406 C 261.539062 199.6875 261.386719 199.757812 261.222656 199.757812 Z M 278.8125 229.730469 L 264.828125 229.730469 C 264.539062 229.730469 264.296875 229.511719 264.261719 229.226562 L 262.066406 211.011719 L 226.394531 211.011719 C 226.117188 211.011719 225.878906 210.8125 225.832031 210.535156 L 224.410156 201.992188 C 224.390625 201.871094 224.410156 201.746094 224.464844 201.636719 L 253.761719 144.960938 C 253.859375 144.773438 254.054688 144.652344 254.269531 144.652344 L 268.675781 144.652344 C 268.964844 144.652344 269.210938 144.867188 269.242188 145.15625 L 271.011719 159.789062 C 271.050781 160.101562 270.828125 160.386719 270.511719 160.425781 C 270.195312 160.460938 269.914062 160.242188 269.875 159.929688 L 268.167969 145.796875 L 254.617188 145.796875 L 225.566406 201.992188 L 226.878906 209.867188 L 262.578125 209.867188 C 262.863281 209.867188 263.109375 210.085938 263.144531 210.371094 L 265.332031 228.585938 L 278.167969 228.585938 L 276.363281 213.628906 C 276.324219 213.316406 276.550781 213.03125 276.859375 212.992188 C 277.171875 212.957031 277.460938 213.179688 277.496094 213.492188 L 279.378906 229.089844 C 279.398438 229.25 279.351562 229.414062 279.242188 229.535156 C 279.132812 229.660156 278.976562 229.730469 278.8125 229.730469 " fill-opacity="1" fill-rule="nonzero"/><path fill="#5e17eb" d="M 269.246094 276.375 L 78.832031 276.375 C 73.464844 276.375 68.597656 271.972656 67.980469 266.566406 L 49.871094 107.851562 C 49.570312 105.210938 50.320312 102.730469 51.984375 100.867188 C 53.628906 99.027344 55.964844 98.011719 58.558594 98.011719 L 288.023438 98.011719 C 293.359375 98.011719 298.230469 102.367188 298.882812 107.71875 L 305.175781 159.332031 C 305.214844 159.644531 304.992188 159.929688 304.679688 159.96875 C 304.367188 160.003906 304.082031 159.78125 304.039062 159.464844 L 297.746094 107.855469 C 297.164062 103.058594 292.800781 99.15625 288.023438 99.15625 L 58.558594 99.15625 C 56.292969 99.15625 54.261719 100.035156 52.839844 101.628906 C 51.394531 103.246094 50.746094 105.410156 51.007812 107.722656 L 69.117188 266.4375 C 69.667969 271.285156 74.027344 275.230469 78.832031 275.230469 L 269.246094 275.230469 C 269.558594 275.230469 269.816406 275.488281 269.816406 275.804688 C 269.816406 276.117188 269.558594 276.375 269.246094 276.375 " fill-opacity="1" fill-rule="nonzero"/><path fill="#000000" d="M 234.441406 336.285156 L 153.925781 336.285156 C 153.609375 336.285156 153.355469 336.027344 153.355469 335.710938 C 153.355469 335.398438 153.609375 335.140625 153.925781 335.140625 L 234.441406 335.140625 C 235.464844 335.140625 236.261719 334.304688 236.261719 333.238281 L 236.261719 330.988281 C 236.261719 329.914062 235.445312 329.042969 234.441406 329.042969 L 211.101562 329.042969 C 210.789062 329.042969 210.53125 328.785156 210.53125 328.46875 C 210.53125 328.15625 210.789062 327.898438 211.101562 327.898438 L 234.441406 327.898438 C 236.078125 327.898438 237.40625 329.285156 237.40625 330.988281 L 237.40625 333.238281 C 237.40625 334.917969 236.078125 336.285156 234.441406 336.285156 " fill-opacity="1" fill-rule="nonzero"/><path fill="#99b9ff" d="M 127.8125 330.1875 L 58.425781 330.1875 L 64.992188 317.261719 L 70.714844 306.003906 L 77.109375 293.429688 L 82.832031 282.179688 L 90.269531 267.554688 C 90.816406 266.484375 91.914062 265.8125 93.117188 265.8125 C 94.324219 265.8125 95.421875 266.480469 95.96875 267.554688 L 103.40625 282.175781 L 109.128906 293.425781 L 115.523438 306 L 121.246094 317.261719 L 127.8125 330.1875 " fill-opacity="1" fill-rule="nonzero"/><path fill="#5e17eb" d="M 109.128906 293.589844 L 77.109375 293.589844 L 82.832031 282.15625 L 103.40625 282.15625 L 109.128906 293.589844 " fill-opacity="1" fill-rule="nonzero"/><path fill="#5e17eb" d="M 121.246094 317.226562 L 64.992188 317.226562 L 70.714844 306.171875 L 115.523438 306.171875 L 121.246094 317.226562 " fill-opacity="1" fill-rule="nonzero"/><path fill="#000000" d="M 59.011719 329.804688 L 126.539062 329.804688 L 114.667969 306.257812 L 95.113281 267.816406 C 94.667969 266.933594 93.769531 266.382812 92.777344 266.382812 C 91.785156 266.382812 90.886719 266.933594 90.4375 267.820312 L 77.277344 293.710938 L 70.882812 306.3125 L 65.160156 317.613281 Z M 127.46875 330.949219 L 58.082031 330.949219 C 57.886719 330.949219 57.699219 330.84375 57.597656 330.675781 C 57.492188 330.507812 57.484375 330.296875 57.574219 330.117188 L 64.140625 317.097656 L 69.863281 305.796875 L 81.980469 281.933594 L 89.417969 267.300781 C 90.0625 266.03125 91.351562 265.238281 92.777344 265.238281 C 94.203125 265.238281 95.488281 266.03125 96.132812 267.296875 L 115.691406 305.742188 L 127.980469 330.117188 C 128.070312 330.296875 128.0625 330.507812 127.957031 330.675781 C 127.851562 330.84375 127.667969 330.949219 127.46875 330.949219 " fill-opacity="1" fill-rule="nonzero"/><path fill="#5e17eb" d="M 134.246094 330.425781 C 134.246094 329.140625 133.203125 328.101562 131.921875 328.101562 L 53.976562 328.101562 C 52.691406 328.101562 51.652344 329.140625 51.652344 330.425781 L 51.652344 337.773438 C 51.652344 339.054688 52.691406 340.09375 53.976562 340.09375 L 131.921875 340.09375 C 133.203125 340.09375 134.246094 339.054688 134.246094 337.773438 L 134.246094 330.425781 " fill-opacity="1" fill-rule="nonzero"/><path fill="#000000" d="M 53.976562 328.671875 C 53.007812 328.671875 52.222656 329.457031 52.222656 330.425781 L 52.222656 337.769531 C 52.222656 338.738281 53.007812 339.523438 53.976562 339.523438 L 131.921875 339.523438 C 132.886719 339.523438 133.671875 338.738281 133.671875 337.769531 L 133.671875 330.425781 C 133.671875 329.457031 132.886719 328.671875 131.921875 328.671875 Z M 131.921875 340.667969 L 53.976562 340.667969 C 52.378906 340.667969 51.078125 339.367188 51.078125 337.769531 L 51.078125 330.425781 C 51.078125 328.828125 52.378906 327.527344 53.976562 327.527344 L 131.921875 327.527344 C 133.519531 327.527344 134.816406 328.828125 134.816406 330.425781 L 134.816406 337.769531 C 134.816406 339.367188 133.519531 340.667969 131.921875 340.667969 " fill-opacity="1" fill-rule="nonzero"/><path fill="#5e17eb" d="M 321.039062 190.253906 C 330.058594 192.792969 341.671875 202.558594 341.671875 220.273438 C 341.671875 233.035156 322.871094 243.847656 322.871094 243.847656 L 319.769531 236.238281 C 319.769531 236.238281 330.132812 228.5625 329.632812 219.605469 C 329.238281 212.421875 317.65625 210.191406 317.65625 210.191406 L 321.039062 190.253906 " fill-opacity="1" fill-rule="nonzero"/><path fill="#5e17eb" d="M 317.234375 335.851562 L 310.75 335.851562 L 310.75 328.238281 L 317.234375 328.238281 L 317.234375 335.851562 " fill-opacity="1" fill-rule="nonzero"/><path fill="#5e17eb" d="M 299.980469 334.441406 L 293.671875 335.929688 L 291.921875 328.523438 L 298.234375 327.03125 L 299.980469 334.441406 " fill-opacity="1" fill-rule="nonzero"/><path fill="#000000" d="M 322.589844 233.808594 C 322.589844 233.808594 324.523438 249.113281 323.039062 255.058594 C 321.554688 261 318.078125 315.917969 318.078125 330.777344 L 309.339844 330.777344 L 305.394531 260.585938 L 293.199219 286.054688 C 292.3125 288.121094 292.085938 290.410156 292.554688 292.609375 L 299.757812 330.777344 L 291.578125 331.339844 L 277.914062 289.429688 C 277.304688 287.351562 277.257812 285.148438 277.78125 283.046875 L 288.863281 238.714844 L 322.589844 233.808594 " fill-opacity="1" fill-rule="nonzero"/><path fill="#ffffff" d="M 305.816406 259.609375 C 305.691406 259.609375 305.566406 259.566406 305.457031 259.484375 C 305.210938 259.285156 305.171875 258.925781 305.371094 258.679688 L 309.878906 253.042969 C 310.078125 252.792969 310.433594 252.753906 310.683594 252.953125 C 310.929688 253.148438 310.96875 253.507812 310.769531 253.757812 L 306.261719 259.394531 C 306.148438 259.535156 305.980469 259.609375 305.816406 259.609375 " fill-opacity="1" fill-rule="nonzero"/><path fill="#ffffff" d="M 317.65625 334.160156 L 310.046875 334.160156 L 308.917969 339.902344 C 308.699219 341.011719 309.5 342.054688 310.570312 342.054688 L 317.132812 342.054688 C 318.199219 342.054688 319.003906 341.011719 318.785156 339.902344 L 317.65625 334.160156 " fill-opacity="1" fill-rule="nonzero"/><path fill="#000000" d="M 310.511719 334.730469 L 309.476562 340.015625 C 309.402344 340.398438 309.496094 340.78125 309.734375 341.074219 C 309.949219 341.335938 310.246094 341.480469 310.570312 341.480469 L 317.128906 341.480469 C 317.453125 341.480469 317.746094 341.335938 317.960938 341.074219 C 318.203125 340.78125 318.296875 340.398438 318.222656 340.015625 L 317.183594 334.730469 Z M 317.128906 342.625 L 310.570312 342.625 C 309.90625 342.625 309.285156 342.324219 308.855469 341.800781 C 308.394531 341.246094 308.214844 340.511719 308.351562 339.792969 L 309.484375 334.050781 C 309.535156 333.78125 309.769531 333.585938 310.042969 333.585938 L 317.65625 333.585938 C 317.925781 333.585938 318.164062 333.78125 318.214844 334.050781 L 319.34375 339.792969 C 319.484375 340.511719 319.304688 341.246094 318.84375 341.800781 C 318.414062 342.324219 317.789062 342.625 317.128906 342.625 " fill-opacity="1" fill-rule="nonzero"/><path fill="#000000" d="M 317.65625 340.792969 L 309.761719 340.792969 C 309.445312 340.792969 309.191406 340.535156 309.191406 340.21875 C 309.191406 339.90625 309.445312 339.648438 309.761719 339.648438 L 317.65625 339.648438 C 317.96875 339.648438 318.226562 339.90625 318.226562 340.21875 C 318.226562 340.535156 317.96875 340.792969 317.65625 340.792969 " fill-opacity="1" fill-rule="nonzero"/><path fill="#ffffff" d="M 300.175781 332.46875 L 302.261719 339.386719 C 302.625 340.589844 301.890625 341.863281 300.8125 341.898438 L 286.496094 342.382812 C 285.609375 342.414062 285.257812 341.039062 286.003906 340.476562 C 288.332031 338.726562 291.433594 336.292969 292.285156 335.140625 C 294.257812 332.46875 296.230469 334.808594 296.230469 334.808594 C 296.230469 334.808594 297.640625 332.46875 300.175781 332.46875 " fill-opacity="1" fill-rule="nonzero"/><path fill="#000000" d="M 294.34375 334.429688 C 294.324219 334.429688 294.3125 334.429688 294.296875 334.429688 C 293.765625 334.453125 293.246094 334.804688 292.746094 335.480469 C 292.035156 336.441406 289.882812 338.277344 286.347656 340.933594 C 286.152344 341.082031 286.136719 341.363281 286.207031 341.5625 C 286.234375 341.640625 286.3125 341.8125 286.46875 341.8125 C 286.472656 341.8125 286.472656 341.8125 286.476562 341.8125 L 300.792969 341.324219 C 301.164062 341.3125 301.402344 341.058594 301.511719 340.90625 C 301.777344 340.535156 301.855469 340.015625 301.714844 339.550781 L 299.761719 333.066406 C 297.84375 333.300781 296.734375 335.085938 296.722656 335.101562 C 296.625 335.261719 296.460938 335.363281 296.273438 335.375 C 296.09375 335.390625 295.914062 335.316406 295.796875 335.175781 C 295.789062 335.171875 295.144531 334.429688 294.34375 334.429688 Z M 286.46875 342.953125 C 285.871094 342.953125 285.347656 342.5625 285.128906 341.945312 C 284.875 341.222656 285.089844 340.449219 285.660156 340.019531 C 289.011719 337.503906 291.199219 335.648438 291.824219 334.800781 C 292.546875 333.828125 293.367188 333.316406 294.265625 333.289062 C 295.0625 333.25 295.71875 333.628906 296.148438 333.957031 C 296.78125 333.1875 298.148438 331.894531 300.179688 331.894531 C 300.429688 331.894531 300.652344 332.058594 300.726562 332.304688 L 302.808594 339.21875 C 303.054688 340.03125 302.917969 340.910156 302.441406 341.570312 C 302.046875 342.121094 301.460938 342.449219 300.832031 342.46875 L 286.515625 342.953125 C 286.5 342.953125 286.484375 342.953125 286.46875 342.953125 " fill-opacity="1" fill-rule="nonzero"/><path fill="#ffffff" d="M 288.058594 340.21875 L 301.023438 339.65625 L 288.058594 340.21875 " fill-opacity="1" fill-rule="nonzero"/><path fill="#000000" d="M 288.058594 340.792969 C 287.753906 340.792969 287.5 340.550781 287.484375 340.246094 C 287.472656 339.929688 287.714844 339.664062 288.03125 339.648438 L 301 339.085938 C 301.324219 339.066406 301.582031 339.316406 301.59375 339.632812 C 301.609375 339.949219 301.363281 340.214844 301.046875 340.226562 L 288.082031 340.792969 C 288.074219 340.792969 288.066406 340.792969 288.058594 340.792969 " fill-opacity="1" fill-rule="nonzero"/><path fill="#ffffff" d="M 307.789062 186.308594 L 314.835938 191.101562 L 295.429688 190.171875 L 301.023438 186.589844 L 301.777344 183.125 C 300.785156 182.976562 299.417969 182.878906 298.984375 182.335938 C 298.21875 181.378906 298.5625 178.070312 298.5625 178.070312 L 297.722656 177.414062 C 297.632812 177.367188 297.566406 177.285156 297.539062 177.191406 C 297.511719 177.09375 297.53125 176.988281 297.582031 176.902344 C 298.296875 175.765625 298.96875 175.398438 299.285156 174.238281 C 299.597656 173.09375 299.460938 173.269531 300.691406 170.804688 L 308.074219 170.792969 L 308.113281 176.324219 C 308.113281 176.324219 309.246094 175.597656 309.960938 176.582031 C 310.484375 177.300781 309.328125 179.707031 308.390625 179.707031 L 307.789062 186.308594 " fill-opacity="1" fill-rule="nonzero"/><path fill="#000000" d="M 297.25 189.6875 L 312.839844 190.433594 L 307.464844 186.78125 C 307.296875 186.664062 307.203125 186.464844 307.222656 186.257812 L 307.824219 179.652344 C 307.851562 179.359375 308.097656 179.136719 308.394531 179.136719 C 308.472656 179.128906 308.792969 178.925781 309.132812 178.3125 C 309.503906 177.640625 309.566406 177.042969 309.496094 176.914062 C 309.109375 176.382812 308.492188 176.761719 308.421875 176.804688 C 308.246094 176.921875 308.023438 176.929688 307.839844 176.828125 C 307.65625 176.730469 307.542969 176.539062 307.542969 176.332031 L 307.503906 171.371094 L 301.042969 171.378906 C 300.160156 173.152344 300.117188 173.320312 299.945312 173.980469 C 299.914062 174.097656 299.878906 174.230469 299.835938 174.386719 C 299.605469 175.238281 299.207031 175.722656 298.785156 176.242188 C 298.585938 176.480469 298.382812 176.730469 298.175781 177.039062 L 298.917969 177.621094 C 299.074219 177.746094 299.152344 177.9375 299.132812 178.132812 C 299 179.410156 299 181.445312 299.429688 181.976562 C 299.65625 182.261719 300.746094 182.40625 301.394531 182.492188 C 301.554688 182.515625 301.710938 182.535156 301.863281 182.558594 C 302.015625 182.582031 302.15625 182.667969 302.25 182.796875 C 302.335938 182.929688 302.367188 183.089844 302.335938 183.242188 L 301.582031 186.710938 C 301.550781 186.863281 301.460938 186.992188 301.332031 187.074219 Z M 314.835938 191.671875 C 314.828125 191.671875 314.816406 191.671875 314.808594 191.671875 L 295.402344 190.742188 C 295.15625 190.730469 294.941406 190.5625 294.878906 190.320312 C 294.8125 190.078125 294.914062 189.824219 295.125 189.691406 L 300.515625 186.238281 L 301.085938 183.605469 C 300.058594 183.464844 299.027344 183.304688 298.539062 182.695312 C 297.773438 181.742188 297.886719 179.308594 297.964844 178.332031 L 297.402344 177.886719 C 297.203125 177.765625 297.054688 177.570312 296.988281 177.339844 C 296.917969 177.09375 296.960938 176.820312 297.101562 176.601562 C 297.382812 176.148438 297.660156 175.8125 297.898438 175.515625 C 298.289062 175.042969 298.566406 174.699219 298.734375 174.085938 C 298.773438 173.9375 298.808594 173.808594 298.839844 173.691406 C 299.050781 172.886719 299.121094 172.667969 300.179688 170.550781 C 300.277344 170.355469 300.472656 170.234375 300.691406 170.234375 L 308.070312 170.226562 C 308.386719 170.226562 308.640625 170.476562 308.640625 170.792969 L 308.679688 175.523438 C 309.269531 175.433594 309.941406 175.582031 310.425781 176.25 C 310.992188 177.035156 310.402344 178.339844 310.207031 178.722656 C 310.019531 179.097656 309.566406 179.859375 308.925781 180.15625 L 308.386719 186.023438 L 315.160156 190.628906 C 315.371094 190.773438 315.460938 191.039062 315.378906 191.28125 C 315.300781 191.515625 315.082031 191.671875 314.835938 191.671875 " fill-opacity="1" fill-rule="nonzero"/><path fill="#000000" d="M 308.753906 182.179688 C 307.265625 182.675781 305.796875 181.511719 305.535156 181.300781 C 304.5 180.484375 303.65625 179.023438 304.074219 178.378906 C 304.300781 178.023438 304.707031 178.21875 305.242188 177.792969 C 306.03125 177.167969 306.253906 175.816406 305.828125 175.453125 C 305.480469 175.15625 304.933594 175.726562 304.367188 175.453125 C 303.667969 175.117188 304.027344 174.050781 303.488281 173.113281 C 302.609375 171.578125 300.558594 172.503906 298.984375 170.871094 C 297.957031 169.800781 297.507812 168.023438 298.097656 167.019531 C 298.269531 166.726562 298.53125 166.464844 298.90625 166.257812 C 301.382812 164.894531 301.753906 166.761719 304.167969 166.785156 C 309.132812 166.824219 311.566406 167.820312 312.464844 169.875 C 313.074219 171.273438 312.328125 173.496094 311.96875 174.574219 C 311.847656 174.933594 311.597656 175.613281 311.382812 176.625 C 311.152344 177.730469 311.222656 178.011719 311.09375 178.671875 C 311 179.132812 310.503906 181.597656 308.753906 182.179688 " fill-opacity="1" fill-rule="nonzero"/><path fill="#ffffff" d="M 297.632812 173.519531 C 297.632812 173.519531 299.824219 174.328125 300.300781 173.230469 C 300.777344 172.136719 300.015625 171.230469 301.207031 170.375 C 302.398438 169.515625 305.257812 168.609375 304.210938 167.324219 C 303.160156 166.035156 299.96875 165.511719 299.0625 167.039062 C 298.15625 168.5625 297.488281 171.183594 296.871094 171.230469 C 296.25 171.277344 296.480469 173.25 297.632812 173.519531 " fill-opacity="1" fill-rule="nonzero"/><path fill="#000000" d="M 297.832031 172.980469 C 298.519531 173.234375 299.609375 173.386719 299.777344 173.003906 C 299.910156 172.6875 299.910156 172.386719 299.910156 172.035156 C 299.90625 171.398438 299.902344 170.605469 300.871094 169.910156 C 301.207031 169.667969 301.628906 169.441406 302.078125 169.199219 C 302.714844 168.855469 303.785156 168.28125 303.859375 167.902344 C 303.871094 167.851562 303.839844 167.777344 303.765625 167.683594 C 303.25 167.054688 301.96875 166.609375 300.890625 166.6875 C 300.519531 166.714844 299.847656 166.835938 299.550781 167.328125 C 299.207031 167.914062 298.878906 168.703125 298.59375 169.40625 C 298.054688 170.726562 297.703125 171.570312 297.113281 171.761719 C 297.09375 171.90625 297.113281 172.191406 297.257812 172.484375 C 297.328125 172.636719 297.492188 172.898438 297.761719 172.960938 C 297.785156 172.964844 297.808594 172.972656 297.832031 172.980469 Z M 299.140625 174.378906 C 298.402344 174.378906 297.671875 174.140625 297.464844 174.066406 C 296.34375 173.78125 295.910156 172.496094 295.96875 171.703125 C 296.019531 171.046875 296.375 170.746094 296.722656 170.675781 C 296.925781 170.457031 297.292969 169.566406 297.535156 168.96875 C 297.839844 168.234375 298.179688 167.398438 298.570312 166.746094 C 298.984375 166.046875 299.78125 165.621094 300.808594 165.546875 C 302.273438 165.433594 303.890625 166.035156 304.652344 166.964844 C 305.023438 167.421875 305.039062 167.847656 304.980469 168.125 C 304.800781 169.03125 303.691406 169.628906 302.621094 170.207031 C 302.203125 170.429688 301.8125 170.640625 301.539062 170.839844 C 301.050781 171.191406 301.050781 171.472656 301.050781 172.03125 C 301.054688 172.429688 301.058594 172.925781 300.824219 173.460938 C 300.511719 174.175781 299.820312 174.378906 299.140625 174.378906 " fill-opacity="1" fill-rule="nonzero"/><path fill="#5e17eb" d="M 288.058594 189.128906 C 288.058594 189.128906 304.96875 184.335938 321.039062 190.257812 C 322.273438 197.378906 323.121094 203.53125 323.714844 208.402344 C 324.757812 216.980469 324.105469 214.238281 325.40625 226.761719 C 326.214844 234.542969 326.429688 235.253906 325.6875 236.628906 C 321.960938 243.539062 306.9375 243.164062 301.164062 241.703125 C 300.753906 241.597656 299.058594 241.148438 296.285156 240.449219 C 293.109375 239.648438 290.5 239.015625 288.761719 238.601562 C 287.820312 238.171875 286.546875 237.417969 285.660156 236.0625 C 283.671875 233.027344 285 229.101562 285.660156 226.480469 C 287.351562 219.742188 285.128906 219.597656 285.660156 207.308594 C 285.84375 203.015625 286.386719 196.773438 288.058594 189.128906 " fill-opacity="1" fill-rule="nonzero"/><path fill="#ffffff" d="M 318.996094 241.898438 C 318.714844 241.898438 318.472656 241.695312 318.429688 241.410156 C 318.382812 241.097656 318.597656 240.808594 318.914062 240.761719 C 319.21875 240.714844 326.40625 239.574219 325.457031 232.757812 C 325.414062 232.445312 325.628906 232.160156 325.945312 232.113281 C 326.25 232.070312 326.546875 232.289062 326.585938 232.601562 C 327.699219 240.546875 319.164062 241.878906 319.078125 241.890625 C 319.050781 241.894531 319.023438 241.898438 318.996094 241.898438 " fill-opacity="1" fill-rule="nonzero"/><path fill="#ffffff" d="M 299.40625 235.320312 C 299.261719 235.320312 299.117188 235.265625 299.003906 235.15625 C 292.265625 228.511719 290.871094 218.453125 290.816406 218.027344 C 290.777344 217.714844 290.996094 217.429688 291.308594 217.386719 C 291.625 217.347656 291.910156 217.566406 291.949219 217.878906 C 291.964844 217.980469 293.351562 227.976562 299.808594 234.339844 C 300.03125 234.5625 300.035156 234.925781 299.8125 235.148438 C 299.703125 235.261719 299.554688 235.320312 299.40625 235.320312 " fill-opacity="1" fill-rule="nonzero"/><path fill="#5e17eb" d="M 282.054688 180.054688 C 282.0625 179.753906 282.28125 179.5 282.578125 179.445312 L 299.285156 174.238281 L 297.835938 170.792969 C 297.835938 170.792969 275.210938 163.613281 264.597656 172.777344 C 253.980469 181.9375 275.320312 204.578125 287.367188 209.820312 L 298.398438 187.679688 L 282.53125 180.703125 C 282.242188 180.625 282.042969 180.359375 282.054688 180.054688 " fill-opacity="1" fill-rule="nonzero"/><path fill="#ffffff" d="M 333.757812 123.761719 C 333.757812 136.46875 323.457031 146.769531 310.75 146.769531 C 298.042969 146.769531 287.742188 136.46875 287.742188 123.761719 C 287.742188 111.058594 298.042969 100.757812 310.75 100.757812 C 323.457031 100.757812 333.757812 111.058594 333.757812 123.761719 " fill-opacity="1" fill-rule="nonzero"/><path fill="#000000" d="M 310.75 101.328125 C 298.378906 101.328125 288.3125 111.394531 288.3125 123.761719 C 288.3125 136.136719 298.378906 146.199219 310.75 146.199219 C 323.117188 146.199219 333.183594 136.136719 333.183594 123.761719 C 333.183594 111.394531 323.117188 101.328125 310.75 101.328125 Z M 310.75 147.34375 C 297.746094 147.34375 287.167969 136.761719 287.167969 123.761719 C 287.167969 110.761719 297.746094 100.1875 310.75 100.1875 C 323.75 100.1875 334.328125 110.761719 334.328125 123.761719 C 334.328125 136.761719 323.75 147.34375 310.75 147.34375 " fill-opacity="1" fill-rule="nonzero"/><path fill="#99b9ff" d="M 325.242188 123.761719 C 325.242188 131.769531 318.753906 138.257812 310.75 138.257812 C 302.742188 138.257812 296.253906 131.769531 296.253906 123.761719 C 296.253906 115.757812 302.742188 109.269531 310.75 109.269531 C 318.753906 109.269531 325.242188 115.757812 325.242188 123.761719 " fill-opacity="1" fill-rule="nonzero"/><path fill="#ffffff" d="M 304.515625 130.324219 C 304.464844 130.324219 304.414062 130.316406 304.363281 130.304688 C 304.058594 130.222656 303.878906 129.90625 303.960938 129.601562 C 304.8125 126.5 307.652344 124.335938 310.871094 124.335938 C 313.929688 124.335938 316.65625 126.277344 317.648438 129.171875 C 317.75 129.472656 317.589844 129.796875 317.292969 129.898438 C 316.992188 130 316.667969 129.839844 316.566406 129.542969 C 315.730469 127.113281 313.441406 125.480469 310.871094 125.480469 C 308.167969 125.480469 305.777344 127.296875 305.066406 129.90625 C 304.996094 130.15625 304.765625 130.324219 304.515625 130.324219 " fill-opacity="1" fill-rule="nonzero"/><path fill="#ffffff" d="M 306.003906 121.308594 C 305.855469 121.308594 305.710938 121.253906 305.597656 121.140625 L 302.339844 117.886719 C 302.121094 117.660156 302.121094 117.300781 302.339844 117.078125 C 302.566406 116.855469 302.925781 116.855469 303.148438 117.078125 L 306.410156 120.332031 C 306.628906 120.554688 306.628906 120.917969 306.410156 121.140625 C 306.292969 121.253906 306.148438 121.308594 306.003906 121.308594 " fill-opacity="1" fill-rule="nonzero"/><path fill="#ffffff" d="M 306.003906 121.308594 C 305.855469 121.308594 305.710938 121.253906 305.597656 121.140625 L 302.339844 117.886719 C 302.121094 117.660156 302.121094 117.300781 302.339844 117.078125 C 302.566406 116.855469 302.925781 116.855469 303.148438 117.078125 L 306.410156 120.332031 C 306.628906 120.554688 306.628906 120.917969 306.410156 121.140625 C 306.292969 121.253906 306.148438 121.308594 306.003906 121.308594 " fill-opacity="1" fill-rule="nonzero"/><path fill="#ffffff" d="M 302.746094 121.308594 C 302.597656 121.308594 302.453125 121.253906 302.339844 121.140625 C 302.121094 120.917969 302.121094 120.554688 302.339844 120.332031 L 305.597656 117.078125 C 305.820312 116.855469 306.183594 116.855469 306.410156 117.078125 C 306.628906 117.300781 306.628906 117.660156 306.410156 117.886719 L 303.148438 121.140625 C 303.039062 121.253906 302.894531 121.308594 302.746094 121.308594 " fill-opacity="1" fill-rule="nonzero"/><path fill="#ffffff" d="M 318.960938 121.3125 C 318.816406 121.3125 318.667969 121.257812 318.558594 121.144531 L 315.300781 117.886719 C 315.074219 117.664062 315.074219 117.304688 315.300781 117.078125 C 315.523438 116.855469 315.886719 116.855469 316.109375 117.078125 L 319.367188 120.335938 C 319.589844 120.558594 319.589844 120.921875 319.367188 121.144531 C 319.253906 121.257812 319.105469 121.3125 318.960938 121.3125 " fill-opacity="1" fill-rule="nonzero"/><path fill="#ffffff" d="M 315.703125 121.3125 C 315.558594 121.3125 315.414062 121.257812 315.300781 121.144531 C 315.074219 120.921875 315.074219 120.558594 315.300781 120.335938 L 318.558594 117.078125 C 318.777344 116.855469 319.140625 116.855469 319.367188 117.078125 C 319.589844 117.304688 319.589844 117.664062 319.367188 117.886719 L 316.109375 121.144531 C 315.996094 121.257812 315.851562 121.3125 315.703125 121.3125 " fill-opacity="1" fill-rule="nonzero"/><path fill="#000000" d="M 233.054688 51.902344 C 232.957031 51.902344 232.855469 51.882812 232.761719 51.839844 C 210.152344 42.417969 184.070312 39.539062 157.335938 43.523438 C 156.921875 43.582031 156.53125 43.296875 156.46875 42.878906 C 156.410156 42.464844 156.695312 42.078125 157.113281 42.015625 C 184.121094 37.992188 210.480469 40.902344 233.347656 50.433594 C 233.738281 50.59375 233.921875 51.042969 233.757812 51.429688 C 233.636719 51.722656 233.351562 51.898438 233.054688 51.902344 " fill-opacity="1" fill-rule="nonzero"/><path fill="#000000" d="M 243.941406 48.648438 C 243.824219 48.648438 243.703125 48.621094 243.59375 48.5625 C 241.652344 47.550781 239.636719 46.574219 237.605469 45.65625 C 209.160156 32.804688 174.746094 30.375 140.695312 38.8125 C 140.28125 38.914062 139.871094 38.664062 139.769531 38.257812 C 139.667969 37.847656 139.917969 37.433594 140.328125 37.332031 C 174.710938 28.8125 209.480469 31.273438 238.234375 44.265625 C 240.289062 45.195312 242.328125 46.1875 244.296875 47.210938 C 244.671875 47.40625 244.8125 47.863281 244.621094 48.238281 C 244.484375 48.5 244.21875 48.648438 243.941406 48.648438 " fill-opacity="1" fill-rule="nonzero"/><path fill="#000000" d="M 267.960938 75.601562 C 267.65625 75.601562 267.40625 75.363281 267.390625 75.058594 C 267.375 74.742188 267.617188 74.476562 267.933594 74.460938 L 270.679688 74.328125 C 270.996094 74.3125 271.261719 74.554688 271.277344 74.871094 C 271.292969 75.1875 271.046875 75.453125 270.734375 75.472656 L 267.988281 75.601562 C 267.980469 75.601562 267.96875 75.601562 267.960938 75.601562 " fill-opacity="1" fill-rule="nonzero"/><path fill="#000000" d="M 277.570312 75.140625 C 277.265625 75.140625 277.015625 74.902344 277 74.597656 C 276.984375 74.28125 277.226562 74.011719 277.542969 74 L 280.289062 73.867188 C 280.597656 73.851562 280.875 74.09375 280.890625 74.410156 C 280.902344 74.726562 280.660156 74.992188 280.34375 75.007812 L 277.601562 75.140625 C 277.589844 75.140625 277.582031 75.140625 277.570312 75.140625 " fill-opacity="1" fill-rule="nonzero"/><path fill="#000000" d="M 274.472656 81.484375 C 274.167969 81.484375 273.917969 81.25 273.898438 80.941406 L 273.753906 78.199219 C 273.738281 77.882812 273.980469 77.613281 274.292969 77.597656 C 274.613281 77.589844 274.878906 77.820312 274.894531 78.136719 L 275.042969 80.882812 C 275.0625 81.199219 274.820312 81.46875 274.503906 81.484375 C 274.492188 81.484375 274.480469 81.484375 274.472656 81.484375 " fill-opacity="1" fill-rule="nonzero"/><path fill="#000000" d="M 273.953125 71.871094 C 273.652344 71.871094 273.402344 71.636719 273.382812 71.332031 L 273.234375 68.585938 C 273.21875 68.269531 273.460938 68 273.777344 67.980469 C 274.085938 67.972656 274.359375 68.207031 274.375 68.523438 L 274.527344 71.269531 C 274.542969 71.585938 274.300781 71.855469 273.984375 71.871094 C 273.976562 71.871094 273.964844 71.871094 273.953125 71.871094 " fill-opacity="1" fill-rule="nonzero"/><path fill="#000000" d="M 249.085938 306.8125 C 248.984375 306.8125 248.878906 306.785156 248.785156 306.726562 L 246.828125 305.515625 C 246.5625 305.351562 246.480469 304.996094 246.644531 304.730469 C 246.8125 304.460938 247.164062 304.378906 247.433594 304.542969 L 249.386719 305.753906 C 249.65625 305.917969 249.738281 306.273438 249.570312 306.542969 C 249.464844 306.714844 249.277344 306.8125 249.085938 306.8125 " fill-opacity="1" fill-rule="nonzero"/><path fill="#000000" d="M 255.929688 311.042969 C 255.828125 311.042969 255.722656 311.015625 255.628906 310.960938 L 253.671875 309.75 C 253.40625 309.585938 253.324219 309.230469 253.488281 308.960938 C 253.652344 308.695312 254.007812 308.609375 254.273438 308.777344 L 256.230469 309.984375 C 256.5 310.152344 256.582031 310.503906 256.414062 310.773438 C 256.308594 310.949219 256.121094 311.042969 255.929688 311.042969 " fill-opacity="1" fill-rule="nonzero"/><path fill="#000000" d="M 248.832031 312.738281 C 248.730469 312.738281 248.628906 312.710938 248.535156 312.65625 C 248.265625 312.492188 248.179688 312.136719 248.34375 311.871094 L 249.542969 309.90625 C 249.707031 309.636719 250.0625 309.550781 250.328125 309.71875 C 250.597656 309.882812 250.683594 310.234375 250.519531 310.503906 L 249.320312 312.464844 C 249.210938 312.640625 249.023438 312.738281 248.832031 312.738281 " fill-opacity="1" fill-rule="nonzero"/><path fill="#000000" d="M 253.027344 305.871094 C 252.925781 305.871094 252.824219 305.84375 252.730469 305.785156 C 252.460938 305.621094 252.375 305.269531 252.539062 305 L 253.738281 303.039062 C 253.90625 302.765625 254.257812 302.683594 254.523438 302.847656 C 254.796875 303.011719 254.878906 303.363281 254.714844 303.632812 L 253.519531 305.597656 C 253.410156 305.773438 253.222656 305.871094 253.027344 305.871094 " fill-opacity="1" fill-rule="nonzero"/><path fill="#000000" d="M 101.113281 66.539062 C 101.054688 66.539062 100.996094 66.53125 100.941406 66.515625 L 98.808594 65.847656 C 98.507812 65.753906 98.339844 65.433594 98.433594 65.132812 C 98.527344 64.828125 98.847656 64.660156 99.148438 64.753906 L 101.28125 65.421875 C 101.582031 65.519531 101.75 65.839844 101.65625 66.140625 C 101.582031 66.382812 101.355469 66.539062 101.113281 66.539062 " fill-opacity="1" fill-rule="nonzero"/><path fill="#000000" d="M 93.648438 64.207031 C 93.589844 64.207031 93.535156 64.199219 93.476562 64.179688 L 91.34375 63.511719 C 91.042969 63.417969 90.875 63.097656 90.96875 62.796875 C 91.0625 62.496094 91.382812 62.324219 91.6875 62.421875 L 93.816406 63.089844 C 94.121094 63.183594 94.289062 63.503906 94.191406 63.804688 C 94.117188 64.050781 93.890625 64.207031 93.648438 64.207031 " fill-opacity="1" fill-rule="nonzero"/><path fill="#000000" d="M 97.132812 62.367188 C 97.078125 62.367188 97.019531 62.359375 96.964844 62.34375 C 96.664062 62.25 96.492188 61.929688 96.585938 61.628906 L 97.238281 59.492188 C 97.332031 59.191406 97.652344 59.019531 97.953125 59.113281 C 98.253906 59.207031 98.425781 59.527344 98.332031 59.828125 L 97.679688 61.964844 C 97.601562 62.210938 97.375 62.367188 97.132812 62.367188 " fill-opacity="1" fill-rule="nonzero"/><path fill="#000000" d="M 94.839844 69.847656 C 94.785156 69.847656 94.730469 69.839844 94.671875 69.824219 C 94.371094 69.730469 94.203125 69.410156 94.292969 69.109375 L 94.949219 66.972656 C 95.039062 66.671875 95.359375 66.5 95.664062 66.59375 C 95.964844 66.683594 96.132812 67.003906 96.042969 67.304688 L 95.386719 69.445312 C 95.3125 69.691406 95.085938 69.847656 94.839844 69.847656 " fill-opacity="1" fill-rule="nonzero"/><path fill="#000000" d="M 132.410156 38.671875 C 132.316406 38.671875 132.21875 38.675781 132.121094 38.691406 C 131.121094 38.851562 130.4375 39.792969 130.59375 40.792969 C 130.671875 41.277344 130.929688 41.703125 131.328125 41.992188 C 131.726562 42.28125 132.210938 42.398438 132.695312 42.320312 C 133.695312 42.164062 134.382812 41.21875 134.222656 40.222656 C 134.082031 39.316406 133.296875 38.671875 132.410156 38.671875 Z M 132.402344 43.488281 C 131.777344 43.488281 131.171875 43.292969 130.65625 42.917969 C 130.011719 42.449219 129.589844 41.757812 129.464844 40.972656 C 129.210938 39.347656 130.320312 37.816406 131.945312 37.5625 C 133.566406 37.304688 135.097656 38.417969 135.355469 40.042969 C 135.609375 41.664062 134.496094 43.195312 132.875 43.453125 C 132.714844 43.476562 132.558594 43.488281 132.402344 43.488281 " fill-opacity="1" fill-rule="nonzero"/></svg>