<svg xmlns="http://www.w3.org/2000/svg" xmlns:xlink="http://www.w3.org/1999/xlink" width="500" zoomAndPan="magnify" viewBox="0 0 375 374.999991" height="500" preserveAspectRatio="xMidYMid meet" version="1.0"><defs><clipPath id="5cea3ec63d"><path d="M 27.792969 62.390625 L 360.207031 62.390625 L 360.207031 312.617188 L 27.792969 312.617188 Z M 27.792969 62.390625 " clip-rule="nonzero"/></clipPath><clipPath id="44bb58bcb2"><path d="M 14.636719 80 L 320 80 L 320 295 L 14.636719 295 Z M 14.636719 80 " clip-rule="nonzero"/></clipPath></defs><g clip-path="url(#5cea3ec63d)"><path fill="#8c52ff" d="M 273.832031 108.320312 C 260.238281 98.15625 248.488281 86.070312 232.839844 78.769531 C 209.773438 68.007812 184.375 63.773438 159.113281 62.605469 C 123.660156 60.960938 86.289062 68.636719 61.835938 96.300781 C 45.125 115.207031 37.832031 140.066406 32.859375 164.28125 C 27.40625 190.824219 25.347656 217.785156 32.683594 244.242188 C 38.621094 265.660156 50.230469 290.757812 71.46875 300.738281 C 89.394531 309.164062 111.167969 308.578125 130.5625 310.027344 C 154.097656 311.78125 177.703125 312.644531 201.308594 312.613281 C 226.167969 312.582031 252.117188 311.269531 273.789062 299.101562 C 287.703125 291.289062 298.894531 279.503906 309.589844 267.664062 C 327.550781 247.777344 345.773438 226.214844 355.195312 200.769531 C 362.121094 182.070312 363.855469 155.476562 347.277344 140.929688 C 339.410156 134.023438 328.578125 131.953125 318.476562 129.222656 C 302.761719 124.976562 287.460938 118.429688 274.335938 108.695312 C 274.167969 108.570312 274 108.445312 273.832031 108.320312 " fill-opacity="1" fill-rule="nonzero"/></g><g clip-path="url(#44bb58bcb2)"><path fill="#28292b" d="M 318.082031 227.308594 C 317.304688 227.136719 316.582031 227.757812 316.640625 228.554688 L 316.675781 229.101562 C 317.648438 241.597656 313.828125 256.042969 305.273438 264.785156 C 297.054688 273.183594 286.222656 278.550781 275.007812 281.695312 C 263.570312 284.90625 251.675781 286.023438 239.859375 286.796875 C 226.738281 287.65625 213.617188 288.527344 200.496094 289.449219 C 170.71875 291.542969 140.507812 293.40625 110.722656 290.460938 C 87.414062 288.15625 63.007812 281.347656 45.875 264.527344 C 29.058594 248.011719 21.21875 223.875 18.457031 200.972656 C 17.097656 189.703125 17 178.335938 18.035156 167.035156 C 19.074219 155.726562 21.199219 144.390625 25.363281 133.792969 C 29.515625 123.222656 35.949219 113.527344 45.066406 106.621094 C 54.738281 99.296875 65.984375 94.347656 77.574219 90.957031 C 89.402344 87.503906 101.632812 85.589844 113.886719 84.472656 C 127.679688 83.214844 141.546875 82.886719 155.386719 83.359375 C 170.539062 83.878906 185.644531 85.277344 200.699219 87.007812 C 214.71875 88.625 228.816406 89.972656 242.765625 92.148438 C 267.078125 95.941406 293.160156 103.644531 308.230469 124.617188 C 311.464844 129.121094 313.996094 134.074219 315.632812 139.378906 C 316.082031 140.832031 318.371094 140.210938 317.917969 138.75 C 310.515625 114.765625 287.457031 100.636719 264.5 94.277344 C 250.847656 90.496094 236.734375 88.773438 222.691406 87.191406 C 207.726562 85.5 192.789062 83.582031 177.777344 82.335938 C 149.75 80.011719 121.140625 79.789062 93.375 84.835938 C 70.074219 89.074219 44.53125 98.054688 30.667969 118.507812 C 24.144531 128.128906 20.300781 139.382812 18.007812 150.710938 C 15.746094 161.902344 14.769531 173.4375 14.972656 184.851562 C 15.398438 208.523438 20.65625 233.445312 33.8125 253.457031 C 40.386719 263.464844 49.113281 271.726562 59.441406 277.785156 C 69.917969 283.929688 81.605469 287.839844 93.472656 290.261719 C 106.546875 292.933594 119.910156 293.761719 133.222656 294.097656 C 148.878906 294.492188 164.546875 293.992188 180.179688 293.117188 C 195.367188 292.273438 210.527344 290.96875 225.707031 290.019531 C 237.753906 289.269531 249.847656 288.789062 261.789062 286.929688 C 273.519531 285.101562 285.21875 281.820312 295.402344 275.550781 C 305.851562 269.121094 313.382812 259.933594 316.945312 248 C 318.527344 242.699219 319.273438 234.390625 319.105469 228.546875 C 319.089844 227.949219 318.664062 227.4375 318.082031 227.308594 " fill-opacity="1" fill-rule="nonzero"/></g><path fill="#28292a" d="M 58.621094 157.742188 C 58.425781 157.449219 58.140625 157.160156 57.667969 156.785156 C 57.207031 156.414062 56.742188 156.136719 56.292969 155.867188 L 56.261719 155.847656 L 56.242188 155.839844 C 55.417969 155.511719 54.523438 155.1875 53.433594 155.1875 L 52.964844 155.1875 C 51.5 155.28125 50.015625 155.734375 48.425781 156.578125 L 48.414062 156.582031 C 45.425781 158.355469 42.769531 162.085938 40.523438 167.660156 C 37.988281 173.726562 36.699219 180.21875 36.699219 186.949219 C 36.699219 195.96875 37.773438 203.429688 39.886719 209.128906 C 40.941406 211.832031 42.171875 213.976562 43.542969 215.507812 C 44.949219 217.074219 46.546875 218.058594 48.304688 218.429688 C 48.964844 218.617188 49.527344 218.617188 50.175781 218.617188 C 51.210938 218.617188 52.246094 218.425781 53.160156 218.058594 C 54.863281 217.457031 55.785156 217.003906 56.238281 216.550781 L 57.324219 215.464844 C 57.566406 215.222656 57.671875 214.882812 57.671875 214.648438 C 57.671875 214.257812 57.507812 214.011719 57.238281 213.742188 C 56.996094 213.503906 56.652344 213.394531 56.421875 213.394531 C 55.792969 213.394531 55.570312 213.660156 55.234375 214.054688 C 55.101562 214.214844 54.933594 214.414062 54.699219 214.648438 C 54.25 215.097656 53.417969 215.527344 52.363281 215.851562 L 52.347656 215.855469 C 51.605469 216.136719 50.839844 216.289062 50.191406 216.292969 L 48.773438 216.117188 C 46.148438 215.496094 43.929688 212.871094 42.175781 208.308594 C 40.117188 203.027344 39.117188 196.039062 39.117188 186.949219 C 39.117188 180.511719 40.328125 174.332031 42.71875 168.578125 C 43.726562 166.101562 44.902344 163.957031 46.21875 162.207031 C 47.457031 160.523438 48.621094 159.359375 49.671875 158.746094 C 50.933594 157.988281 52.167969 157.605469 53.34375 157.605469 C 53.953125 157.605469 54.535156 157.738281 55.230469 158.035156 C 56 158.378906 56.496094 158.792969 56.828125 159.371094 C 57.035156 159.785156 57.292969 159.957031 57.6875 159.957031 C 57.890625 159.957031 58.21875 159.957031 58.472656 159.730469 C 58.886719 159.511719 59.121094 159.171875 59.121094 158.796875 C 59.121094 158.347656 58.960938 158.15625 58.773438 157.929688 C 58.722656 157.871094 58.675781 157.8125 58.621094 157.742188 " fill-opacity="1" fill-rule="nonzero"/><path fill="#28292a" d="M 84.222656 186.585938 C 84.222656 195.816406 83.398438 202.777344 81.703125 207.871094 L 81.699219 207.875 C 80.941406 210.410156 79.800781 212.53125 78.410156 214.015625 C 77.109375 215.320312 75.613281 216.023438 73.972656 216.113281 L 73.617188 216.113281 C 72.183594 216.113281 70.871094 215.613281 69.710938 214.632812 L 69.703125 214.628906 C 68.351562 213.546875 67.222656 211.863281 66.25 209.484375 C 64.195312 204.378906 63.191406 196.863281 63.191406 186.496094 C 63.191406 179.089844 64.222656 172.574219 66.34375 166.578125 C 67.390625 163.792969 68.621094 161.535156 70.011719 159.867188 C 71.355469 158.347656 72.652344 157.605469 73.976562 157.605469 C 75.226562 157.605469 76.53125 158.367188 77.855469 159.867188 C 79.046875 161.3125 80.125 163.476562 81.160156 166.484375 C 83.195312 172.230469 84.222656 178.992188 84.222656 186.585938 Z M 79.613281 158.363281 C 77.960938 156.257812 76.066406 155.1875 73.976562 155.1875 C 71.832031 155.1875 69.933594 156.226562 68.171875 158.355469 C 66.703125 159.996094 65.425781 162.324219 64.144531 165.675781 C 61.910156 171.660156 60.777344 178.664062 60.777344 186.496094 C 60.777344 197.011719 61.882812 205.050781 64.054688 210.402344 C 65.191406 213.148438 66.585938 215.21875 68.203125 216.566406 C 69.804688 217.886719 71.578125 218.527344 73.617188 218.527344 L 73.988281 218.527344 C 76.433594 218.433594 78.476562 217.488281 80.230469 215.640625 C 81.703125 214.085938 82.933594 211.773438 84 208.570312 C 85.75 203.136719 86.636719 195.742188 86.636719 186.585938 C 86.636719 178.867188 85.566406 171.832031 83.457031 165.679688 C 82.347656 162.535156 81.054688 160.074219 79.613281 158.363281 " fill-opacity="1" fill-rule="nonzero"/><path fill="#28292a" d="M 123.675781 155.1875 C 123.117188 155.1875 122.730469 155.527344 122.609375 156.113281 L 110.375 206.28125 L 99.03125 156.121094 C 98.914062 155.53125 98.527344 155.1875 97.964844 155.1875 L 97.761719 155.1875 L 97.742188 155.195312 C 97.089844 155.300781 96.734375 155.65625 96.625 156.3125 L 96.625 156.324219 L 94.089844 217.171875 L 94.089844 217.183594 C 94.089844 217.933594 94.53125 218.34375 95.339844 218.34375 L 95.523438 218.34375 C 95.765625 218.34375 96.5 218.34375 96.503906 217.277344 L 98.683594 165.539062 L 109.121094 211.800781 C 109.226562 212.429688 109.574219 212.734375 110.1875 212.734375 L 110.484375 212.734375 L 110.511719 212.726562 C 111.0625 212.617188 111.320312 212.359375 111.433594 211.808594 L 122.851562 165.175781 L 124.777344 217.460938 C 124.777344 218.171875 125.1875 218.617188 125.847656 218.617188 L 126.027344 218.617188 C 126.800781 218.617188 127.191406 218.226562 127.191406 217.457031 L 127.191406 217.449219 L 124.929688 156.347656 C 124.925781 155.601562 124.480469 155.1875 123.675781 155.1875 " fill-opacity="1" fill-rule="nonzero"/><path fill="#28292a" d="M 137.792969 155.914062 C 137.066406 155.914062 136.542969 156.441406 136.542969 157.164062 L 136.542969 217.726562 C 136.542969 218.453125 137.066406 218.980469 137.792969 218.980469 C 138.5 218.980469 138.953125 218.488281 138.953125 217.726562 L 138.953125 157.164062 C 138.953125 156.40625 138.5 155.914062 137.792969 155.914062 " fill-opacity="1" fill-rule="nonzero"/><path fill="#28292a" d="M 170.378906 155.1875 C 170.0625 155.1875 169.816406 155.292969 169.585938 155.519531 C 169.261719 155.738281 169.128906 155.988281 169.128906 156.351562 L 169.128906 209.867188 L 151.527344 156.015625 C 151.398438 155.40625 150.988281 155.1875 150.644531 155.1875 C 150.457031 155.1875 150.242188 155.1875 150.019531 155.292969 C 149.507812 155.410156 149.210938 155.828125 149.210938 156.441406 L 149.210938 217.457031 C 149.210938 217.773438 149.316406 218.019531 149.542969 218.25 C 149.75 218.550781 150.070312 218.707031 150.464844 218.707031 C 150.828125 218.707031 151.078125 218.570312 151.300781 218.25 C 151.527344 218.019531 151.628906 217.773438 151.628906 217.457031 L 151.628906 164.027344 L 169.230469 217.804688 L 169.238281 217.820312 C 169.359375 218.132812 169.589844 218.707031 170.199219 218.707031 L 170.226562 218.707031 L 170.703125 218.613281 C 171.234375 218.503906 171.542969 218.082031 171.542969 217.457031 L 171.542969 156.351562 C 171.542969 156.027344 171.4375 155.777344 171.195312 155.535156 C 170.957031 155.296875 170.707031 155.1875 170.378906 155.1875 " fill-opacity="1" fill-rule="nonzero"/><path fill="#28292a" d="M 204.808594 159.921875 L 203.617188 158.453125 L 203.601562 158.433594 C 203.042969 157.875 202.386719 157.40625 201.757812 156.957031 C 200.402344 155.964844 198.921875 155.460938 197.351562 155.460938 L 196.613281 155.460938 C 195.097656 155.5625 193.8125 155.992188 192.683594 156.773438 C 189.746094 158.667969 187.035156 162.390625 184.625 167.832031 C 181.90625 173.816406 180.359375 180.097656 179.898438 187.019531 L 179.898438 187.03125 C 179.808594 188.8125 179.714844 190.65625 179.714844 192.378906 C 179.714844 195.882812 179.984375 199.148438 180.523438 202.089844 C 181.050781 204.988281 181.855469 207.664062 182.902344 210.039062 C 184.089844 212.871094 185.628906 214.976562 187.597656 216.480469 C 189.417969 217.9375 191.28125 218.617188 193.460938 218.617188 L 193.832031 218.617188 C 196.257812 218.523438 198.289062 217.867188 199.859375 216.664062 C 201.570312 215.429688 202.492188 213.890625 202.675781 211.964844 C 202.855469 210.8125 202.949219 209.355469 202.949219 207.859375 L 202.859375 205.046875 C 202.859375 204.28125 202.46875 203.890625 201.699219 203.890625 L 191.742188 203.800781 C 191.414062 203.800781 191.164062 203.90625 190.925781 204.148438 L 190.90625 204.164062 L 190.890625 204.1875 C 190.6875 204.492188 190.578125 204.722656 190.578125 205.050781 C 190.578125 205.378906 190.683594 205.628906 190.925781 205.867188 C 191.164062 206.109375 191.414062 206.214844 191.738281 206.214844 L 200.445312 206.304688 L 200.445312 207.769531 C 200.445312 209.386719 200.34375 210.804688 200.265625 211.734375 C 200.183594 212.960938 199.550781 213.992188 198.382812 214.800781 L 198.371094 214.808594 C 197.289062 215.640625 195.757812 216.109375 193.816406 216.199219 L 193.460938 216.199219 C 190.042969 216.199219 187.226562 213.816406 185.09375 209.113281 C 183.128906 204.730469 182.128906 199.101562 182.128906 192.378906 C 182.128906 190.835938 182.210938 189.21875 182.296875 187.5 L 182.3125 187.234375 C 182.664062 180.800781 184.179688 174.585938 186.816406 168.769531 C 189.035156 163.796875 191.441406 160.453125 193.964844 158.828125 C 194.972656 158.15625 196.113281 157.785156 197.171875 157.785156 C 198.277344 157.785156 199.386719 158.175781 200.367188 158.910156 L 200.375 158.914062 C 201.558594 159.734375 202.425781 160.628906 203.101562 161.726562 C 203.308594 162.136719 203.566406 162.3125 203.960938 162.3125 C 204.160156 162.3125 204.492188 162.3125 204.746094 162.085938 C 205.15625 161.867188 205.394531 161.527344 205.394531 161.148438 C 205.394531 160.726562 205.253906 160.539062 205.042969 160.253906 C 204.972656 160.160156 204.898438 160.054688 204.808594 159.921875 " fill-opacity="1" fill-rule="nonzero"/><path fill="#28292a" d="M 245.320312 160.039062 C 245.242188 159.972656 245.15625 159.894531 245.066406 159.804688 C 244.746094 159.378906 244.246094 158.910156 243.585938 158.414062 C 242.9375 157.859375 242.199219 157.398438 241.480469 156.949219 C 239.683594 155.78125 237.808594 155.1875 235.914062 155.1875 C 234.46875 155.1875 233.160156 155.496094 231.898438 156.121094 C 229.863281 157.1875 228.234375 158.777344 227.054688 160.851562 C 225.871094 162.933594 225.109375 165.550781 224.792969 168.636719 C 224.699219 169.554688 224.699219 170.484375 224.699219 171.378906 C 224.699219 176.753906 225.980469 182.234375 228.613281 188.136719 C 229.5 190.167969 230.972656 192.875 233.0625 196.578125 C 235.015625 200.132812 236.21875 202.351562 236.582031 203.164062 L 236.589844 203.1875 C 237.9375 205.613281 238.839844 207.6875 239.191406 209.1875 L 239.199219 209.207031 C 239.480469 210.058594 239.636719 210.832031 239.636719 211.390625 C 239.636719 211.992188 239.515625 212.480469 239.210938 213.085938 L 239.203125 213.105469 C 238.710938 214.34375 237.703125 215.226562 236.28125 215.671875 C 235.199219 216.03125 234.046875 216.199219 232.652344 216.199219 L 231.75 216.199219 C 229.890625 216.121094 227.964844 215.742188 225.871094 215.042969 C 225.640625 214.933594 225.417969 214.933594 225.320312 214.933594 C 224.800781 214.933594 224.453125 215.230469 224.34375 215.773438 L 224.25 216.253906 L 224.25 216.277344 C 224.25 217.164062 224.828125 217.320312 225.496094 217.503906 C 225.621094 217.535156 225.746094 217.570312 225.882812 217.609375 C 226.574219 217.808594 227.410156 217.988281 228.4375 218.160156 C 229.496094 218.425781 230.570312 218.519531 231.515625 218.605469 L 231.632812 218.617188 L 232.652344 218.617188 C 234.46875 218.617188 235.960938 218.398438 237.082031 217.96875 C 239.082031 217.332031 240.53125 216.039062 241.394531 214.125 C 241.773438 213.367188 241.960938 212.507812 241.960938 211.570312 C 241.960938 210.734375 241.820312 209.796875 241.503906 208.527344 C 241.148438 206.839844 240.277344 204.78125 238.765625 202.042969 C 238.382812 201.1875 237.023438 198.757812 235.140625 195.421875 C 233.257812 192.085938 231.757812 189.214844 230.804688 187.113281 C 228.355469 181.78125 227.117188 176.550781 227.117188 171.558594 C 227.117188 170.675781 227.117188 169.761719 227.207031 168.871094 C 227.738281 163.523438 229.703125 159.96875 233.039062 158.300781 C 233.949219 157.84375 234.914062 157.605469 235.820312 157.605469 C 237.242188 157.605469 238.640625 158.054688 240.210938 159.015625 L 240.222656 159.019531 C 241.582031 159.785156 242.742188 160.738281 243.671875 161.847656 C 243.90625 162.191406 244.257812 162.3125 244.511719 162.3125 C 244.742188 162.3125 245.085938 162.207031 245.324219 161.964844 C 245.566406 161.722656 245.855469 161.371094 245.855469 161.058594 C 245.855469 160.519531 245.617188 160.308594 245.320312 160.039062 " fill-opacity="1" fill-rule="nonzero"/><path fill="#28292a" d="M 272.132812 186.585938 C 272.132812 195.816406 271.308594 202.777344 269.613281 207.871094 L 269.609375 207.875 C 268.847656 210.410156 267.710938 212.53125 266.320312 214.015625 C 265.015625 215.320312 263.523438 216.023438 261.882812 216.113281 L 261.527344 216.113281 C 260.09375 216.113281 258.777344 215.613281 257.621094 214.632812 L 257.613281 214.628906 C 256.261719 213.546875 255.128906 211.863281 254.160156 209.484375 C 252.105469 204.378906 251.101562 196.863281 251.101562 186.496094 C 251.101562 179.089844 252.136719 172.574219 254.253906 166.578125 C 255.300781 163.792969 256.53125 161.535156 257.921875 159.867188 C 259.265625 158.347656 260.5625 157.605469 261.890625 157.605469 C 263.136719 157.605469 264.441406 158.367188 265.769531 159.867188 C 266.953125 161.3125 268.035156 163.476562 269.070312 166.484375 C 271.101562 172.230469 272.132812 178.992188 272.132812 186.585938 Z M 267.519531 158.363281 C 265.871094 156.257812 263.976562 155.1875 261.890625 155.1875 C 259.742188 155.1875 257.84375 156.226562 256.082031 158.355469 C 254.617188 159.996094 253.335938 162.324219 252.050781 165.675781 C 249.820312 171.660156 248.6875 178.664062 248.6875 186.496094 C 248.6875 197.011719 249.789062 205.050781 251.964844 210.402344 C 253.101562 213.148438 254.496094 215.21875 256.113281 216.566406 C 257.714844 217.886719 259.484375 218.527344 261.527344 218.527344 L 261.898438 218.527344 C 264.34375 218.433594 266.386719 217.488281 268.140625 215.640625 C 269.609375 214.085938 270.84375 211.773438 271.910156 208.570312 C 273.660156 203.136719 274.550781 195.738281 274.550781 186.585938 C 274.550781 178.867188 273.476562 171.832031 271.363281 165.679688 C 270.253906 162.539062 268.960938 160.074219 267.519531 158.363281 " fill-opacity="1" fill-rule="nonzero"/><path fill="#28292a" d="M 305.082031 186.585938 C 305.082031 195.816406 304.257812 202.777344 302.558594 207.871094 L 302.558594 207.875 C 301.796875 210.410156 300.660156 212.53125 299.269531 214.015625 C 297.964844 215.320312 296.472656 216.023438 294.832031 216.113281 L 294.476562 216.113281 C 293.039062 216.113281 291.726562 215.613281 290.570312 214.632812 L 290.5625 214.628906 C 289.207031 213.546875 288.078125 211.863281 287.109375 209.484375 C 285.050781 204.378906 284.050781 196.863281 284.050781 186.496094 C 284.050781 179.089844 285.082031 172.574219 287.203125 166.578125 C 288.246094 163.792969 289.480469 161.535156 290.867188 159.867188 C 292.214844 158.347656 293.511719 157.605469 294.839844 157.605469 C 296.082031 157.605469 297.386719 158.367188 298.714844 159.867188 C 299.902344 161.3125 300.984375 163.476562 302.019531 166.484375 C 304.050781 172.230469 305.082031 178.992188 305.082031 186.585938 Z M 300.46875 158.363281 C 298.820312 156.257812 296.925781 155.1875 294.839844 155.1875 C 292.691406 155.1875 290.792969 156.226562 289.03125 158.355469 C 287.566406 159.996094 286.285156 162.324219 285 165.675781 C 282.765625 171.660156 281.636719 178.664062 281.636719 186.496094 C 281.636719 197.011719 282.738281 205.050781 284.914062 210.402344 C 286.046875 213.148438 287.445312 215.21875 289.0625 216.566406 C 290.664062 217.886719 292.433594 218.527344 294.476562 218.527344 L 294.847656 218.527344 C 297.292969 218.433594 299.332031 217.488281 301.089844 215.640625 C 302.558594 214.085938 303.792969 211.773438 304.859375 208.570312 C 306.609375 203.136719 307.496094 195.742188 307.496094 186.585938 C 307.496094 178.867188 306.425781 171.832031 304.3125 165.679688 C 303.203125 162.539062 301.910156 160.074219 300.46875 158.363281 " fill-opacity="1" fill-rule="nonzero"/><path fill="#28292a" d="M 338.105469 155.535156 C 337.867188 155.296875 337.617188 155.1875 337.289062 155.1875 C 336.972656 155.1875 336.726562 155.292969 336.496094 155.519531 C 336.171875 155.738281 336.039062 155.988281 336.039062 156.351562 L 336.039062 209.867188 L 318.4375 156.015625 C 318.3125 155.40625 317.898438 155.1875 317.558594 155.1875 C 317.367188 155.1875 317.152344 155.1875 316.929688 155.292969 C 316.417969 155.410156 316.121094 155.828125 316.121094 156.441406 L 316.121094 217.457031 C 316.121094 217.773438 316.226562 218.019531 316.453125 218.25 C 316.660156 218.550781 316.980469 218.707031 317.375 218.707031 C 317.738281 218.707031 317.988281 218.570312 318.210938 218.25 C 318.4375 218.019531 318.539062 217.773438 318.539062 217.457031 L 318.539062 164.027344 L 336.140625 217.804688 L 336.148438 217.820312 C 336.273438 218.132812 336.5 218.707031 337.109375 218.707031 L 337.136719 218.707031 L 337.609375 218.613281 C 338.144531 218.503906 338.453125 218.082031 338.453125 217.457031 L 338.453125 156.351562 C 338.453125 156.027344 338.347656 155.777344 338.105469 155.535156 " fill-opacity="1" fill-rule="nonzero"/></svg>